<svg xmlns="http://www.w3.org/2000/svg" viewBox="0 0 512 512" width="512" height="512">
    <!-- Transparent Background -->
    
    <!-- Outer Glow / Soft Shadow -->
    <path d="M280 80c-90 0-165 65-185 150 40-40 95-65 155-65 90 0 165 70 175 160C450 255 375 165 280 165z" fill="rgba(212, 175, 55, 0.2)" filter="blur(10px)"/>
    
    <!-- Main Crescent -->
    <path d="M256 32a224 224 0 1 0 224 224c0-82-44-154-110-196-15 48-18 102-1 154 22 70 70 125 130 155-50 63-125 103-211 103A216 216 0 0 1 72 256c0-112 85-204 194-222z" fill="#d4af37" />
    
    <!-- Star -->
    <polygon points="340,140 355,185 405,190 365,220 380,270 340,240 300,270 315,220 275,190 325,185" fill="#d4af37" />
</svg>
